<svg xmlns="http://www.w3.org/2000/svg" xmlns:xlink="http://www.w3.org/1999/xlink" width="2000" zoomAndPan="magnify" viewBox="0 0 1500 1499.999933" height="2000" preserveAspectRatio="xMidYMid meet" version="1.0"><defs><clipPath id="9f3bc957ec"><path d="M 1114.75 53.03125 L 1446.96875 385.25 C 1480.921875 419.203125 1500 465.257812 1500 513.28125 L 1500 986.71875 C 1500 1034.742188 1480.921875 1080.796875 1446.96875 1114.75 L 1114.75 1446.96875 C 1080.796875 1480.921875 1034.742188 1500 986.71875 1500 L 513.28125 1500 C 465.257812 1500 419.203125 1480.921875 385.25 1446.96875 L 53.03125 1114.75 C 19.078125 1080.796875 0 1034.742188 0 986.71875 L 0 513.28125 C 0 465.257812 19.078125 419.203125 53.03125 385.25 L 385.25 53.03125 C 419.203125 19.078125 465.257812 0 513.28125 0 L 986.71875 0 C 1034.742188 0 1080.796875 19.078125 1114.75 53.03125 Z M 1114.75 53.03125 " clip-rule="nonzero"/></clipPath><clipPath id="b73c2a0c9a"><path d="M 0 0 L 1500 0 L 1500 1500 L 0 1500 Z M 0 0 " clip-rule="nonzero"/></clipPath><clipPath id="a65e7117ae"><path d="M 1114.75 53.03125 L 1446.96875 385.25 C 1480.921875 419.203125 1500 465.257812 1500 513.28125 L 1500 986.71875 C 1500 1034.742188 1480.921875 1080.796875 1446.96875 1114.75 L 1114.75 1446.96875 C 1080.796875 1480.921875 1034.742188 1500 986.71875 1500 L 513.28125 1500 C 465.257812 1500 419.203125 1480.921875 385.25 1446.96875 L 53.03125 1114.75 C 19.078125 1080.796875 0 1034.742188 0 986.71875 L 0 513.28125 C 0 465.257812 19.078125 419.203125 53.03125 385.25 L 385.25 53.03125 C 419.203125 19.078125 465.257812 0 513.28125 0 L 986.71875 0 C 1034.742188 0 1080.796875 19.078125 1114.75 53.03125 Z M 1114.75 53.03125 " clip-rule="nonzero"/></clipPath><clipPath id="17dea11eed"><rect x="0" width="1500" y="0" height="1500"/></clipPath><clipPath id="da6ca75aa4"><path d="M 168.042969 377.152344 L 1373.957031 377.152344 L 1373.957031 578 L 168.042969 578 Z M 168.042969 377.152344 " clip-rule="nonzero"/></clipPath><clipPath id="7b7728e262"><path d="M 125.957031 504 L 1317 504 L 1317 1122.8125 L 125.957031 1122.8125 Z M 125.957031 504 " clip-rule="nonzero"/></clipPath></defs><g clip-path="url(#9f3bc957ec)"><g transform="matrix(1, 0, 0, 1, 0, 0.000000000000112861)"><g clip-path="url(#17dea11eed)"><g clip-path="url(#b73c2a0c9a)"><g clip-path="url(#a65e7117ae)"><rect x="-330" width="2160" fill="#242424" height="2159.999904" y="-329.999985" fill-opacity="1"/></g></g></g></g></g><g clip-path="url(#da6ca75aa4)"><path fill="#ffffff" d="M 1374.140625 567.480469 C 1367.390625 575.617188 1358.433594 578.164062 1347.097656 577.558594 C 1316.664062 575.914062 1286.386719 572.679688 1257.15625 565.351562 C 1227.851562 557.996094 1197.769531 552.488281 1169.757812 541.453125 C 1149.179688 533.347656 1128.425781 525.292969 1108.902344 515.40625 C 1092.269531 506.980469 1074.421875 500.753906 1058.0625 492.09375 C 1039.023438 482.015625 1018.199219 475.625 998.386719 467.199219 C 968.449219 454.457031 936.605469 447.675781 904.601562 440.722656 C 882.089844 435.820312 859.753906 436.046875 837.445312 438.707031 C 826.625 440 815.714844 442.261719 804.875 444.246094 C 772.285156 450.195312 739.300781 454.929688 707.296875 462.8125 C 670.460938 471.882812 632.714844 477.761719 596.308594 488.066406 C 576.828125 493.59375 557.164062 497.949219 537.117188 501.1875 C 508.390625 505.839844 479.414062 507.425781 450.265625 505.71875 C 432.972656 504.703125 415.652344 503.777344 398.441406 502.019531 C 377.296875 499.863281 356.007812 497.292969 335.929688 490.945312 C 314.003906 483.996094 292.4375 475.992188 271.3125 467.332031 C 254.996094 460.632812 239.082031 452.90625 223.945312 444.308594 C 210.847656 436.859375 198.609375 428.023438 186.90625 418.878906 C 179.777344 413.289062 174.371094 405.960938 168.648438 398.625 C 173.796875 400.8125 179.367188 402.457031 184.03125 405.285156 C 205.597656 418.375 229.074219 428.09375 252.582031 438.050781 C 276.132812 448.027344 301.039062 453.082031 326.109375 457.796875 C 342.453125 460.871094 359.40625 461.382812 375.847656 464.148438 C 383.984375 465.515625 392 466.140625 400.1875 466.625 C 418.363281 467.703125 436.148438 464.703125 454.078125 463.191406 C 487.800781 460.34375 521.101562 455.042969 554.328125 449.414062 C 567.140625 447.246094 580.191406 445.558594 592.53125 442.003906 C 619.253906 434.320312 646.164062 426.769531 671.910156 416.90625 C 696.890625 407.339844 722.6875 400.671875 748.488281 393.507812 C 765.039062 388.917969 781.738281 385.742188 798.773438 383.71875 C 815.941406 381.671875 833.171875 380.039062 850.414062 378.519531 C 871.445312 376.667969 892.527344 376.761719 913.570312 378.496094 C 935.90625 380.335938 958.007812 383.625 979.339844 389.78125 C 994.144531 394.054688 1008.5 399.550781 1023.046875 404.511719 C 1040.308594 410.421875 1054.96875 420.347656 1070.167969 429.285156 C 1088.300781 439.960938 1106.046875 451.261719 1123.132812 463.222656 C 1132.175781 469.542969 1141.996094 474.492188 1151.523438 479.992188 C 1178.121094 495.363281 1207.734375 503.683594 1238.003906 511.484375 C 1267.53125 519.085938 1297.628906 522.796875 1327.710938 527.109375 C 1335.3125 528.199219 1343.082031 528.445312 1350.777344 528.96875 C 1358.90625 529.535156 1364.976562 532.523438 1367.84375 539.675781 C 1369.867188 544.699219 1372.046875 549.683594 1374.140625 554.699219 C 1374.140625 558.953125 1374.140625 563.214844 1374.140625 567.480469 " fill-opacity="1" fill-rule="nonzero"/></g><g clip-path="url(#7b7728e262)"><path fill="#ffffff" d="M 530.460938 639.238281 C 531.804688 639.863281 532.84375 640.582031 534.027344 640.882812 C 561.984375 647.816406 588.070312 658.820312 614.207031 669.761719 C 629.507812 676.164062 644.621094 683.273438 660.597656 687.96875 C 692.007812 697.21875 723.960938 705.035156 755.730469 713.347656 C 760.3125 714.550781 765.070312 715.207031 769.746094 716.144531 C 794.703125 721.117188 819.671875 725.679688 845.359375 727.097656 C 871.671875 728.542969 897.707031 726.878906 923.476562 723.058594 C 948.773438 719.308594 974.066406 715.445312 998.574219 708.027344 C 1028.667969 698.921875 1059.882812 693.054688 1090.027344 683.921875 C 1107.628906 678.578125 1125.804688 674.738281 1143.773438 670.402344 C 1150.09375 668.878906 1156.585938 667.933594 1163.65625 666.597656 C 1157.972656 662.796875 1153.246094 658.984375 1147.875 656.140625 C 1132.875 648.195312 1117.808594 640.304688 1102.398438 633.011719 C 1080.175781 622.5 1057.664062 612.480469 1035.210938 602.339844 C 1026.425781 598.375 1017.457031 594.738281 1008.664062 590.804688 C 1006.371094 589.785156 1004.511719 588.050781 1002.273438 586.898438 C 993.910156 582.605469 985.03125 579.398438 976.585938 576.632812 C 979.421875 586.796875 983.222656 596.464844 984.691406 606.410156 C 987.917969 628.316406 978.394531 647.167969 964.019531 664.285156 C 955.644531 674.253906 943.910156 681.105469 932.394531 687.734375 C 922.992188 693.128906 911.84375 695.820312 900.625 696.652344 C 874.476562 698.582031 849.652344 695.53125 826.246094 683.355469 C 809.128906 674.449219 794.46875 664.09375 783.390625 649.359375 C 775.902344 639.390625 771.738281 628.53125 770.25 617.074219 C 768 599.792969 771.800781 583.1875 781.039062 567.675781 C 782.199219 565.722656 782.835938 563.511719 784.203125 560.246094 C 778.683594 562.515625 774.636719 564.550781 770.320312 565.898438 C 745.097656 573.757812 719.402344 580.332031 694.515625 589.179688 C 668.234375 598.519531 640.6875 604.734375 614.199219 613.808594 C 586.835938 623.1875 557.832031 628.574219 530.460938 639.238281 Z M 913.140625 769.652344 C 903.039062 770.167969 894.859375 770.816406 886.683594 770.949219 C 858.929688 771.378906 831.148438 772.367188 803.417969 771.761719 C 768.472656 771 733.488281 768.535156 699.582031 760.613281 C 673.207031 754.457031 646.832031 747.304688 622.820312 735.601562 C 605.835938 727.332031 588.027344 720.5 571.363281 711.867188 C 549.292969 700.433594 524.902344 694.9375 501.136719 687.601562 C 483.742188 682.226562 466.039062 678.773438 448.007812 676.378906 C 428.515625 673.800781 408.890625 672.003906 389.328125 669.816406 C 364.75 667.0625 339.761719 665.878906 315.71875 661.03125 C 290.558594 655.945312 265.160156 649.964844 242.234375 638.828125 C 227.871094 631.851562 214.011719 623.855469 201.929688 613.828125 C 195.15625 608.21875 188.222656 602.730469 181.964844 596.691406 C 170.671875 585.769531 160.214844 574.238281 151.183594 561.683594 C 147.484375 556.546875 142.128906 552.355469 138.175781 547.332031 C 133.808594 541.78125 130.035156 535.824219 126.328125 529.894531 C 125.566406 528.683594 126.214844 526.78125 126.214844 523.523438 C 129.554688 526.730469 131.691406 528.949219 134.023438 530.984375 C 136.488281 533.140625 139.191406 535.074219 141.6875 537.191406 C 144.535156 539.59375 147.019531 542.410156 150.125 544.496094 C 157.777344 549.621094 166.296875 553.855469 173.386719 559.515625 C 184.039062 568.011719 197.171875 572.667969 209.019531 579.273438 C 209.242188 579.410156 209.46875 579.542969 209.707031 579.644531 C 231.785156 588.972656 254.542969 596.054688 279.058594 598.878906 C 305.128906 601.898438 331.234375 602.167969 357.351562 601.304688 C 372.210938 600.808594 387.066406 598.890625 401.8125 596.9375 C 419.175781 594.636719 436.582031 592.25 453.667969 588.757812 C 489.824219 581.359375 525.773438 573.222656 561.820312 565.394531 C 581.308594 557.277344 602.25 552.878906 622.574219 546.910156 C 630.144531 544.691406 637.933594 543.054688 645.535156 540.910156 C 669.734375 534.054688 693.878906 527.070312 718.054688 520.164062 C 722.101562 519.015625 726.234375 518.070312 730.300781 516.96875 C 741.871094 513.855469 753.082031 509.613281 765.316406 508.585938 C 776.988281 507.609375 788.601562 505.675781 800.273438 505.226562 C 823.75 504.3125 847.269531 504.105469 870.652344 506.5625 C 883.867188 507.949219 897.335938 509.015625 910.046875 512.234375 C 935.980469 518.808594 962.652344 524.109375 986.664062 535.269531 C 1005.714844 544.113281 1025.566406 551.421875 1044.386719 560.574219 C 1060.191406 568.269531 1076.257812 575.699219 1091.097656 584.699219 C 1105.171875 593.238281 1120.738281 599.414062 1134.652344 607.960938 C 1150.410156 617.640625 1167.703125 624.90625 1183.792969 633.90625 C 1199.144531 642.503906 1215.953125 648.363281 1231.46875 656.386719 C 1250.375 666.167969 1270.964844 672.21875 1290.949219 679.636719 C 1297.125 681.929688 1300.269531 685.410156 1302.425781 691.0625 C 1306.238281 701.070312 1308.683594 711.613281 1315.289062 720.726562 C 1316.542969 722.460938 1316.378906 725 1316.902344 727.34375 C 1310.328125 729.726562 1305.34375 726.542969 1301.140625 724.640625 C 1287.402344 718.445312 1272.503906 716.050781 1257.90625 712.609375 C 1248.011719 710.277344 1238.15625 707.617188 1228.089844 706.054688 C 1200.058594 701.71875 1171.753906 699.632812 1144.0625 706.957031 C 1126.070312 711.714844 1108.296875 718.15625 1093.839844 729.027344 C 1082.804688 737.339844 1073.425781 747.328125 1066.816406 759.277344 C 1060.910156 769.980469 1056.089844 780.8125 1053.59375 792.515625 C 1049.761719 810.445312 1051.828125 827.890625 1059.164062 844.761719 C 1064.042969 855.980469 1070.597656 866.472656 1077.953125 876.675781 C 1084.960938 886.394531 1093.480469 894.59375 1103.160156 902.0625 C 1103.960938 902.679688 1104.863281 903.214844 1105.574219 903.921875 C 1111.429688 909.777344 1111.277344 911.640625 1104.464844 916.683594 C 1103.046875 917.753906 1101.636719 918.894531 1100.023438 919.683594 C 1084.398438 927.390625 1070.394531 937.234375 1056.726562 947.21875 C 1044.101562 956.445312 1033.320312 967.503906 1023.980469 979.707031 C 1014.46875 992.140625 1006.855469 1005.363281 1000.9375 1019.234375 C 990.035156 1044.796875 979.984375 1070.648438 969.785156 1096.4375 C 967.410156 1102.417969 965.949219 1108.6875 963.835938 1114.757812 C 962.753906 1117.820312 961.964844 1121.230469 957.648438 1122.824219 C 954.917969 1119.925781 955.726562 1116.640625 956.394531 1113.484375 C 960.660156 1093.5625 965.3125 1073.699219 969.238281 1053.726562 C 974.261719 1028.113281 978.085938 1002.394531 978.660156 976.285156 C 979.296875 947.199219 981.792969 918.132812 982.421875 889.046875 C 982.738281 874.433594 981.578125 859.691406 979.492188 845.183594 C 976.769531 826.246094 972.476562 807.484375 967.757812 788.601562 C 966.023438 792.925781 964.214844 797.230469 962.558594 801.585938 C 956.601562 817.308594 947.765625 831.773438 938.496094 846.105469 C 925.796875 865.792969 911.773438 884.636719 896.597656 902.914062 C 883.035156 919.253906 869 935.148438 853.640625 950.21875 C 844.679688 959.003906 834.519531 966.585938 825.433594 975.148438 C 815.675781 984.34375 803.652344 990.960938 793.101562 999.167969 C 779.105469 1010.050781 762.453125 1016.800781 746.78125 1025.152344 C 727.28125 1035.539062 705.457031 1040.964844 685.195312 1049.546875 C 660.875 1059.859375 634.726562 1065.390625 609.863281 1074.039062 C 585.050781 1082.679688 559.640625 1084.890625 533.472656 1084.789062 C 512.121094 1084.707031 490.769531 1085.136719 469.429688 1085.710938 C 446.3125 1086.328125 423.378906 1084.519531 401.484375 1078.335938 C 377.574219 1071.574219 353.027344 1065.75 330.96875 1054.804688 C 316.902344 1047.828125 303.308594 1039.816406 290.703125 1030.925781 C 280.160156 1023.5 270.636719 1014.652344 261.964844 1005.476562 C 249.355469 992.121094 237.488281 978.136719 228.746094 962.386719 C 221.050781 948.515625 216.261719 933.851562 214.011719 918.480469 C 210.828125 896.800781 212.933594 875.585938 220.503906 854.820312 C 222.210938 850.136719 224.59375 845.605469 227.152344 841.214844 C 233.675781 830.046875 242.738281 820.585938 252.097656 811.144531 C 265.941406 797.160156 283.507812 789.75 303.175781 785.546875 C 321.402344 781.664062 339.753906 782.558594 357.710938 787.027344 C 369.734375 790.027344 381.765625 793.253906 393.324219 797.386719 C 413.988281 804.773438 428.125 818.386719 437.421875 836.171875 C 446.96875 854.429688 449.785156 873.285156 443.085938 892.703125 C 436.785156 910.980469 423.632812 923.589844 402.039062 927.605469 C 379.917969 931.714844 360.136719 925.210938 346.566406 909.726562 C 342.546875 905.136719 340.738281 899.023438 338.117188 893.976562 C 344.324219 897.550781 351.023438 900.828125 356.910156 904.992188 C 361.914062 908.535156 366.980469 907.109375 371.914062 906.285156 C 375.054688 905.761719 377.882812 903.59375 380.808594 902.113281 C 392.964844 895.96875 398.914062 886.40625 399.839844 874.289062 C 400.90625 860.183594 395.820312 848.039062 385.824219 836.933594 C 370.9375 820.398438 351.394531 814.675781 328.625 816.25 C 315.074219 817.183594 302.25 821.488281 292.121094 829.421875 C 273.984375 843.601562 263.359375 861.550781 260.382812 883.207031 C 257.074219 907.324219 262.578125 929.539062 275.011719 950.910156 C 279.851562 959.210938 286.292969 966.226562 292.726562 973.472656 C 301.921875 983.816406 313.992188 991.125 324.957031 999.660156 C 339.824219 1011.242188 357.425781 1018.023438 374.820312 1025.59375 C 398.144531 1035.757812 423.101562 1037.296875 448.191406 1039.21875 C 469.296875 1040.832031 490.378906 1040.113281 511.390625 1038.808594 C 537.972656 1037.152344 564.695312 1034.964844 590.414062 1028.851562 C 615.175781 1022.976562 640.59375 1018.648438 664.101562 1009.125 C 673.433594 1005.34375 682.238281 1000.546875 691.21875 996.105469 C 700.300781 991.605469 709.527344 987.3125 718.269531 982.347656 C 733.015625 973.984375 747.707031 965.5 761.898438 956.414062 C 773.28125 949.132812 784.367188 941.363281 794.714844 932.949219 C 806.199219 923.621094 816.691406 913.3125 827.613281 903.417969 C 831.34375 900.039062 835.359375 896.855469 838.710938 893.1875 C 848.738281 882.179688 859.433594 871.515625 868.15625 859.730469 C 880.683594 842.796875 891.386719 824.859375 898.847656 805.554688 C 903.398438 793.746094 908.199219 782.023438 913.140625 769.652344 " fill-opacity="1" fill-rule="nonzero"/></g></svg>