<svg xmlns="http://www.w3.org/2000/svg" xmlns:xlink="http://www.w3.org/1999/xlink" width="2000" zoomAndPan="magnify" viewBox="0 0 1500 1499.999933" height="2000" preserveAspectRatio="xMidYMid meet" version="1.0"><defs><clipPath id="ffe90372d6"><path d="M 51 301.894531 L 1500 301.894531 L 1500 543 L 51 543 Z M 51 301.894531 " clip-rule="nonzero"/></clipPath><clipPath id="a08c5ac502"><path d="M 0 455 L 1432 455 L 1432 1198.066406 L 0 1198.066406 Z M 0 455 " clip-rule="nonzero"/></clipPath></defs><g clip-path="url(#ffe90372d6)"><path fill="#ffffff" d="M 1500.125 530.640625 C 1492.011719 540.417969 1481.242188 543.480469 1467.621094 542.753906 C 1431.046875 540.777344 1394.65625 536.886719 1359.523438 528.082031 C 1324.304688 519.242188 1288.148438 512.621094 1254.488281 499.359375 C 1229.753906 489.617188 1204.808594 479.9375 1181.347656 468.058594 C 1161.355469 457.929688 1139.90625 450.449219 1120.246094 440.039062 C 1097.363281 427.925781 1072.332031 420.242188 1048.527344 410.117188 C 1012.542969 394.804688 974.273438 386.65625 935.808594 378.296875 C 908.753906 372.40625 881.90625 372.675781 855.097656 375.875 C 842.09375 377.429688 828.980469 380.148438 815.953125 382.53125 C 776.785156 389.679688 737.144531 395.375 698.679688 404.84375 C 654.410156 415.75 609.042969 422.8125 565.289062 435.199219 C 541.878906 441.839844 518.242188 447.078125 494.152344 450.964844 C 459.625 456.558594 424.800781 458.460938 389.769531 456.414062 C 368.984375 455.191406 348.167969 454.078125 327.484375 451.964844 C 302.070312 449.375 276.484375 446.285156 252.355469 438.65625 C 226.003906 430.308594 200.082031 420.6875 174.695312 410.277344 C 155.085938 402.226562 135.957031 392.941406 117.769531 382.605469 C 102.023438 373.652344 87.316406 363.03125 73.25 352.042969 C 64.679688 345.324219 58.1875 336.519531 51.308594 327.703125 C 57.496094 330.332031 64.1875 332.308594 69.792969 335.707031 C 95.714844 351.4375 123.929688 363.117188 152.183594 375.085938 C 180.484375 387.074219 210.417969 393.152344 240.550781 398.820312 C 260.195312 402.511719 280.570312 403.128906 300.328125 406.449219 C 310.109375 408.09375 319.742188 408.84375 329.582031 409.425781 C 351.425781 410.722656 372.800781 407.117188 394.351562 405.300781 C 434.878906 401.882812 474.898438 395.507812 514.835938 388.742188 C 530.234375 386.136719 545.914062 384.113281 560.746094 379.839844 C 592.863281 370.601562 625.207031 361.527344 656.152344 349.671875 C 686.171875 338.175781 717.175781 330.160156 748.183594 321.554688 C 768.078125 316.035156 788.144531 312.21875 808.617188 309.785156 C 829.253906 307.328125 849.960938 305.363281 870.683594 303.539062 C 895.960938 301.316406 921.296875 301.425781 946.589844 303.511719 C 973.433594 305.722656 999.996094 309.675781 1025.632812 317.070312 C 1043.425781 322.207031 1060.675781 328.816406 1078.160156 334.777344 C 1098.90625 341.878906 1116.527344 353.808594 1134.792969 364.550781 C 1156.585938 377.382812 1177.914062 390.964844 1198.449219 405.339844 C 1209.316406 412.933594 1221.121094 418.886719 1232.566406 425.492188 C 1264.539062 443.964844 1300.125 453.96875 1336.503906 463.339844 C 1371.996094 472.476562 1408.164062 476.933594 1444.320312 482.121094 C 1453.457031 483.429688 1462.792969 483.726562 1472.042969 484.355469 C 1481.808594 485.035156 1489.109375 488.628906 1492.554688 497.222656 C 1494.988281 503.261719 1497.605469 509.25 1500.125 515.277344 C 1500.125 520.390625 1500.125 525.515625 1500.125 530.640625 " fill-opacity="1" fill-rule="nonzero"/></g><g clip-path="url(#a08c5ac502)"><path fill="#ffffff" d="M 486.148438 616.882812 C 487.765625 617.632812 489.015625 618.5 490.433594 618.855469 C 524.035156 627.191406 555.386719 640.417969 586.800781 653.570312 C 605.1875 661.261719 623.351562 669.808594 642.554688 675.449219 C 680.304688 686.5625 718.707031 695.960938 756.890625 705.949219 C 762.398438 707.394531 768.117188 708.1875 773.734375 709.308594 C 803.726562 715.285156 833.734375 720.769531 864.605469 722.472656 C 896.230469 724.214844 927.523438 722.214844 958.492188 717.621094 C 988.894531 713.113281 1019.296875 708.46875 1048.746094 699.554688 C 1084.917969 688.613281 1122.429688 681.5625 1158.660156 670.585938 C 1179.816406 664.164062 1201.660156 659.546875 1223.257812 654.335938 C 1230.851562 652.507812 1238.65625 651.371094 1247.152344 649.765625 C 1240.324219 645.195312 1234.640625 640.613281 1228.183594 637.195312 C 1210.15625 627.648438 1192.050781 618.164062 1173.53125 609.398438 C 1146.820312 596.765625 1119.765625 584.726562 1092.78125 572.539062 C 1082.226562 567.769531 1071.445312 563.398438 1060.875 558.671875 C 1058.121094 557.449219 1055.886719 555.359375 1053.191406 553.976562 C 1043.140625 548.816406 1032.472656 544.964844 1022.320312 541.640625 C 1025.730469 553.855469 1030.300781 565.472656 1032.066406 577.425781 C 1035.941406 603.753906 1024.496094 626.414062 1007.21875 646.988281 C 997.15625 658.964844 983.054688 667.203125 969.210938 675.167969 C 957.910156 681.648438 944.515625 684.882812 931.03125 685.886719 C 899.601562 688.207031 869.769531 684.539062 841.636719 669.90625 C 821.066406 659.199219 803.445312 646.753906 790.132812 629.042969 C 781.128906 617.066406 776.128906 604.015625 774.339844 590.246094 C 771.632812 569.476562 776.203125 549.519531 787.304688 530.875 C 788.699219 528.527344 789.464844 525.871094 791.109375 521.945312 C 784.476562 524.675781 779.613281 527.121094 774.425781 528.738281 C 744.109375 538.183594 713.226562 546.085938 683.316406 556.71875 C 651.730469 567.945312 618.625 575.414062 586.789062 586.320312 C 553.90625 597.59375 519.046875 604.0625 486.148438 616.882812 Z M 946.070312 773.621094 C 933.929688 774.238281 924.101562 775.015625 914.273438 775.175781 C 880.917969 775.695312 847.527344 776.882812 814.199219 776.152344 C 772.203125 775.238281 730.15625 772.273438 689.40625 762.753906 C 657.707031 755.359375 626.007812 746.761719 597.148438 732.699219 C 576.738281 722.757812 555.335938 714.546875 535.308594 704.171875 C 508.785156 690.429688 479.46875 683.824219 450.90625 675.003906 C 430 668.546875 408.722656 664.398438 387.050781 661.519531 C 363.628906 658.421875 340.042969 656.261719 316.53125 653.628906 C 286.992188 650.320312 256.960938 648.902344 228.066406 643.074219 C 197.824219 636.960938 167.296875 629.773438 139.75 616.386719 C 122.484375 608.003906 105.828125 598.394531 91.304688 586.34375 C 83.167969 579.601562 74.832031 573.007812 67.3125 565.746094 C 53.742188 552.621094 41.171875 538.765625 30.316406 523.675781 C 25.871094 517.5 19.4375 512.460938 14.683594 506.421875 C 9.433594 499.753906 4.902344 492.59375 0.445312 485.46875 C -0.46875 484.011719 0.308594 481.726562 0.308594 477.8125 C 4.320312 481.664062 6.890625 484.332031 9.695312 486.777344 C 12.65625 489.371094 15.90625 491.691406 18.90625 494.234375 C 22.324219 497.125 25.316406 500.507812 29.042969 503.015625 C 38.242188 509.175781 48.480469 514.265625 57 521.070312 C 69.804688 531.28125 85.585938 536.875 99.824219 544.816406 C 100.097656 544.976562 100.367188 545.136719 100.652344 545.261719 C 127.191406 556.472656 154.542969 564.980469 184.003906 568.375 C 215.332031 572.007812 246.710938 572.328125 278.101562 571.289062 C 295.957031 570.699219 313.8125 568.386719 331.53125 566.042969 C 352.402344 563.277344 373.320312 560.410156 393.855469 556.214844 C 437.3125 547.320312 480.519531 537.542969 523.835938 528.132812 C 547.261719 518.378906 572.429688 513.09375 596.855469 505.917969 C 605.953125 503.25 615.316406 501.285156 624.453125 498.707031 C 653.535156 490.46875 682.550781 482.074219 711.609375 473.773438 C 716.472656 472.390625 721.4375 471.253906 726.328125 469.933594 C 740.230469 466.191406 753.703125 461.09375 768.410156 459.855469 C 782.441406 458.683594 796.394531 456.363281 810.421875 455.820312 C 838.636719 454.71875 866.902344 454.472656 895.007812 457.425781 C 910.890625 459.089844 927.078125 460.375 942.351562 464.242188 C 973.519531 472.144531 1005.578125 478.515625 1034.4375 491.925781 C 1057.328125 502.558594 1081.1875 511.339844 1103.808594 522.339844 C 1122.800781 531.589844 1142.113281 540.519531 1159.945312 551.335938 C 1176.863281 561.597656 1195.570312 569.019531 1212.292969 579.292969 C 1231.234375 590.925781 1252.015625 599.65625 1271.355469 610.472656 C 1289.804688 620.808594 1310.003906 627.847656 1328.652344 637.492188 C 1351.375 649.246094 1376.121094 656.519531 1400.136719 665.4375 C 1407.558594 668.1875 1411.335938 672.375 1413.929688 679.167969 C 1418.511719 691.195312 1421.449219 703.863281 1429.390625 714.816406 C 1430.898438 716.902344 1430.699219 719.953125 1431.328125 722.769531 C 1423.425781 725.632812 1417.4375 721.804688 1412.386719 719.523438 C 1395.878906 712.074219 1377.972656 709.199219 1360.425781 705.0625 C 1348.53125 702.257812 1336.691406 699.0625 1324.589844 697.183594 C 1290.902344 691.972656 1256.882812 689.464844 1223.601562 698.269531 C 1201.980469 703.988281 1180.617188 711.730469 1163.242188 724.796875 C 1149.980469 734.785156 1138.707031 746.789062 1130.765625 761.148438 C 1123.667969 774.015625 1117.875 787.03125 1114.875 801.097656 C 1110.269531 822.644531 1112.75 843.613281 1121.566406 863.890625 C 1127.433594 877.375 1135.3125 889.980469 1144.152344 902.242188 C 1152.574219 913.925781 1162.8125 923.777344 1174.445312 932.757812 C 1175.40625 933.496094 1176.492188 934.140625 1177.34375 934.992188 C 1184.382812 942.03125 1184.199219 944.265625 1176.011719 950.328125 C 1174.308594 951.613281 1172.617188 952.984375 1170.675781 953.933594 C 1151.894531 963.195312 1135.0625 975.027344 1118.640625 987.027344 C 1103.464844 998.117188 1090.511719 1011.402344 1079.285156 1026.074219 C 1067.851562 1041.015625 1058.699219 1056.910156 1051.589844 1073.578125 C 1038.484375 1104.300781 1026.410156 1135.371094 1014.148438 1166.367188 C 1011.292969 1173.550781 1009.542969 1181.085938 1006.996094 1188.382812 C 1005.699219 1192.0625 1004.75 1196.164062 999.5625 1198.078125 C 996.277344 1194.59375 997.253906 1190.644531 998.058594 1186.851562 C 1003.183594 1162.910156 1008.777344 1139.039062 1013.492188 1115.03125 C 1019.53125 1084.25 1024.125 1053.339844 1024.816406 1021.960938 C 1025.582031 987.003906 1028.582031 952.070312 1029.335938 917.109375 C 1029.71875 899.550781 1028.324219 881.832031 1025.816406 864.394531 C 1022.542969 841.636719 1017.382812 819.089844 1011.714844 796.390625 C 1009.628906 801.589844 1007.453125 806.765625 1005.464844 812 C 998.304688 830.894531 987.683594 848.28125 976.546875 865.507812 C 961.285156 889.167969 944.425781 911.8125 926.1875 933.78125 C 909.886719 953.414062 893.019531 972.519531 874.558594 990.632812 C 863.792969 1001.191406 851.578125 1010.304688 840.664062 1020.589844 C 828.933594 1031.644531 814.484375 1039.597656 801.800781 1049.460938 C 784.984375 1062.539062 764.964844 1070.652344 746.136719 1080.691406 C 722.699219 1093.175781 696.46875 1099.695312 672.117188 1110.007812 C 642.890625 1122.40625 611.460938 1129.046875 581.578125 1139.445312 C 551.757812 1149.832031 521.21875 1152.484375 489.765625 1152.363281 C 464.105469 1152.265625 438.445312 1152.78125 412.796875 1153.472656 C 385.015625 1154.214844 357.453125 1152.042969 331.136719 1144.609375 C 302.402344 1136.480469 272.902344 1129.480469 246.390625 1116.328125 C 229.484375 1107.945312 213.148438 1098.3125 197.996094 1087.632812 C 185.328125 1078.703125 173.878906 1068.070312 163.457031 1057.042969 C 148.304688 1040.992188 134.042969 1024.183594 123.535156 1005.253906 C 114.285156 988.585938 108.53125 970.960938 105.828125 952.488281 C 102 926.433594 104.53125 900.933594 113.632812 875.976562 C 115.679688 870.347656 118.546875 864.902344 121.621094 859.628906 C 129.460938 846.207031 140.351562 834.832031 151.601562 823.484375 C 168.234375 806.679688 189.351562 797.773438 212.988281 792.722656 C 234.894531 788.054688 256.949219 789.128906 278.535156 794.503906 C 292.980469 798.109375 307.441406 801.984375 321.332031 806.949219 C 346.167969 815.828125 363.15625 832.191406 374.332031 853.566406 C 385.804688 875.507812 389.1875 898.167969 381.136719 921.507812 C 373.566406 943.476562 357.761719 958.625 331.804688 963.453125 C 305.21875 968.394531 281.449219 960.578125 265.136719 941.96875 C 260.308594 936.449219 258.132812 929.101562 254.984375 923.039062 C 262.441406 927.335938 270.496094 931.273438 277.570312 936.277344 C 283.582031 940.535156 289.671875 938.820312 295.597656 937.832031 C 299.378906 937.203125 302.773438 934.597656 306.292969 932.816406 C 320.902344 925.433594 328.050781 913.9375 329.164062 899.378906 C 330.445312 882.425781 324.335938 867.828125 312.320312 854.480469 C 294.425781 834.609375 270.9375 827.730469 243.574219 829.621094 C 227.285156 830.746094 211.875 835.917969 199.699219 845.453125 C 177.90625 862.492188 165.136719 884.066406 161.554688 910.097656 C 157.578125 939.078125 164.199219 965.777344 179.140625 991.460938 C 184.957031 1001.4375 192.699219 1009.871094 200.429688 1018.578125 C 211.480469 1031.011719 225.992188 1039.792969 239.167969 1050.054688 C 257.035156 1063.972656 278.1875 1072.121094 299.09375 1081.222656 C 327.125 1093.433594 357.121094 1095.289062 387.273438 1097.597656 C 412.636719 1099.535156 437.976562 1098.671875 463.230469 1097.101562 C 495.175781 1095.113281 527.292969 1092.484375 558.203125 1085.136719 C 587.960938 1078.074219 618.511719 1072.875 646.765625 1061.429688 C 657.980469 1056.882812 668.5625 1051.117188 679.355469 1045.78125 C 690.269531 1040.375 701.359375 1035.210938 711.867188 1029.246094 C 729.585938 1019.195312 747.246094 1008.996094 764.300781 998.082031 C 777.980469 989.324219 791.304688 979.988281 803.742188 969.875 C 817.546875 958.664062 830.152344 946.277344 843.28125 934.386719 C 847.761719 930.324219 852.589844 926.496094 856.617188 922.085938 C 868.667969 908.863281 881.523438 896.042969 892.007812 881.878906 C 907.0625 861.53125 919.929688 839.96875 928.894531 816.765625 C 934.363281 802.578125 940.128906 788.488281 946.070312 773.621094 " fill-opacity="1" fill-rule="nonzero"/></g></svg>